<?xml version="1.0" encoding="UTF-8"?>
<!--Generator: Apple Native CoreSVG 232.5-->
<!DOCTYPE svg
PUBLIC "-//W3C//DTD SVG 1.1//EN"
       "http://www.w3.org/Graphics/SVG/1.1/DTD/svg11.dtd">
<svg version="1.1" xmlns="http://www.w3.org/2000/svg" xmlns:xlink="http://www.w3.org/1999/xlink" width="35.7129" height="25.2686">
 <g>
  <rect height="25.2686" opacity="0" width="35.7129" x="0" y="0"/>
  <path d="M17.666 14.2676C18.1494 14.2676 18.6182 14.0771 19.0723 13.667L33.7061 0.776367C32.915 0.249023 32.0068 0.0146484 30.7471 0.0146484L4.59961 0.0146484C3.33984 0.0146484 2.43164 0.249023 1.62598 0.776367L16.2598 13.667C16.7285 14.0771 17.1973 14.2676 17.666 14.2676ZM0.380859 22.8955L11.2207 12.0703L0.351562 2.49023C0.19043 2.79785 0 3.54492 0 4.55566L0 20.7275C0 21.665 0.146484 22.3389 0.380859 22.8955ZM4.16016 25.2686L31.1865 25.2686C32.2559 25.2686 33.0908 25.0049 33.6475 24.624L22.5 13.4766L20.3613 15.3809C19.5117 16.1279 18.5889 16.5088 17.666 16.5088C16.7578 16.5088 15.835 16.1279 14.9854 15.3809L12.8467 13.4766L1.69922 24.624C2.25586 25.0049 3.07617 25.2686 4.16016 25.2686ZM34.9658 22.8955C35.1855 22.3389 35.3467 21.665 35.3467 20.7275L35.3467 4.55566C35.3467 3.54492 35.1562 2.79785 34.9951 2.49023L24.126 12.0703Z" fill="#000000" fill-opacity="0.85"/>
 </g>
</svg>
