<?xml version="1.0" encoding="UTF-8"?>
<!--Generator: Apple Native CoreSVG 232.5-->
<!DOCTYPE svg
PUBLIC "-//W3C//DTD SVG 1.1//EN"
       "http://www.w3.org/Graphics/SVG/1.1/DTD/svg11.dtd">
<svg version="1.1" xmlns="http://www.w3.org/2000/svg" xmlns:xlink="http://www.w3.org/1999/xlink" width="23.6865" height="30.6006">
 <g>
  <rect height="30.6006" opacity="0" width="23.6865" x="0" y="0"/>
  <path d="M17.1973 7.00195C15.0146 7.00195 13.2275 8.33496 12.085 8.33496C10.8691 8.33496 9.28711 7.08984 7.38281 7.08984C3.76465 7.08984 0.102539 10.0781 0.102539 15.7031C0.102539 19.2188 1.4502 22.9248 3.13477 25.3125C4.57031 27.334 5.83008 28.9893 7.64648 28.9893C9.43359 28.9893 10.2246 27.8027 12.4512 27.8027C14.707 27.8027 15.2197 28.96 17.1973 28.96C19.1602 28.96 20.4639 27.1582 21.709 25.3857C23.0859 23.3496 23.6719 21.3721 23.6865 21.2695C23.5693 21.2402 19.8193 19.7021 19.8193 15.4102C19.8193 11.6895 22.7637 10.0195 22.9395 9.8877C20.9912 7.08984 18.0176 7.00195 17.1973 7.00195ZM16.1719 4.62891C17.0654 3.54492 17.6953 2.06543 17.6953 0.571289C17.6953 0.366211 17.6807 0.161133 17.6514 0C16.1865 0.0585938 14.4287 0.966797 13.3887 2.19727C12.5537 3.13477 11.792 4.62891 11.792 6.12305C11.792 6.35742 11.8359 6.57715 11.8506 6.65039C11.9385 6.66504 12.085 6.69434 12.2461 6.69434C13.5498 6.69434 15.1904 5.81543 16.1719 4.62891Z" fill="#000000" fill-opacity="0.85"/>
 </g>
</svg>
